<svg width="24" height="24" viewBox="0 0 24 24" fill="none" xmlns="http://www.w3.org/2000/svg">
<path d="M8.83995 15.8261L19.8013 4.5009C20.0599 4.23364 20.3617 4.10001 20.7066 4.10001C21.0515 4.10001 21.3533 4.23364 21.612 4.5009C21.8707 4.76816 22 5.08575 22 5.45368C22 5.82161 21.8707 6.13876 21.612 6.40513L9.74531 18.6991C9.48663 18.9664 9.18484 19.1 8.83995 19.1C8.49505 19.1 8.19326 18.9664 7.93459 18.6991L2.37309 12.953C2.11441 12.6858 1.99025 12.3686 2.0006 12.0016C2.01094 11.6345 2.14589 11.3169 2.40542 11.0488C2.66496 10.7806 2.97235 10.647 3.3276 10.6479C3.68284 10.6488 3.9898 10.7824 4.24848 11.0488L8.83995 15.8261Z" fill="black"/>
</svg>
